<?xml version="1.0" encoding="utf-8"?>
<!-- Generator: Adobe Illustrator 24.1.0, SVG Export Plug-In . SVG Version: 6.00 Build 0)  -->
<svg version="1.1" id="Layer_1" xmlns="http://www.w3.org/2000/svg" xmlns:xlink="http://www.w3.org/1999/xlink" x="0px" y="0px"
	 viewBox="0 0 150 150" style="enable-background:new 0 0 150 150;" xml:space="preserve">

<path fill="#fff" fill-rule="evenodd" clip-rule="evenodd" d="M95,50.6l-7.1,0c-5.5,0-6.6,2.7-6.6,6.6v8.6h13.2l-1.7,13.5H81.3V114H67.5V79.3H56V65.8h11.5v-10
	c0-11.6,7-17.9,17.2-17.9c4.9,0,9.1,0.4,10.3,0.5V50.6z M75,0C33.6,0,0,33.6,0,75c0,41.4,33.6,75,75,75c41.4,0,75-33.6,75-75
	C150,33.6,116.4,0,75,0z"/>
</svg>
