<?xml version="1.0" encoding="utf-8"?>
<!-- Generator: Adobe Illustrator 24.1.0, SVG Export Plug-In . SVG Version: 6.00 Build 0)  -->
<svg version="1.1" id="Layer_1" xmlns="http://www.w3.org/2000/svg" xmlns:xlink="http://www.w3.org/1999/xlink" x="0px" y="0px"
	 viewBox="0 0 150 150" style="enable-background:new 0 0 150 150;" xml:space="preserve">

<path id="Icon" fill="#62a43d"  fill-rule="evenodd" clip-rule="evenodd" d="M120.9,135.2H30.7v-10.3c0-14.7,30.1-22.7,45.1-22.7s45.1,8.1,45.1,22.7V135.2z M75.8,44.5
	c12.3,0,22.1,9.9,22.1,22.3C98,79.1,88.1,89,75.8,89s-22.1-9.9-22.1-22.3C53.7,54.4,63.6,44.5,75.8,44.5L75.8,44.5z M75.8,14.8
	c4.1,0,7.4,3.3,7.4,7.4s-3.3,7.4-7.4,7.4c-4.1,0-7.4-3.3-7.4-7.4S71.8,14.8,75.8,14.8L75.8,14.8z M127.3,15H96.1
	C92.9,6.3,84.7,0,75,0S57.1,6.3,53.9,15H22.7c-8.2,0-14.9,6.8-14.9,15v105c0,8.3,6.7,15,14.9,15h104.6c8.2,0,14.9-6.8,14.9-15V30
	C142.2,21.8,135.5,15,127.3,15L127.3,15z"/>
</svg>
