<?xml version="1.0" encoding="utf-8"?>
<!-- Generator: Adobe Illustrator 24.1.0, SVG Export Plug-In . SVG Version: 6.00 Build 0)  -->
<svg version="1.1" id="Layer_1" xmlns="http://www.w3.org/2000/svg" xmlns:xlink="http://www.w3.org/1999/xlink" x="0px" y="0px"
	 viewBox="0 0 150 122.3" style="enable-background:new 0 0 150 122.3;" xml:space="preserve">
    <g>
        <polyline fill="#fff" points="36.4,121.4 9.7,93.3 9.6,93.3 9.6,121.4 0,121.4 0,82.1 11.1,82.1 37.8,110.2 37.9,110.2 37.9,82.1 47.5,82.1 47.5,121.4 36.4,121.4  "></polyline>
        <polyline fill="#fff" points="54.6,121.4 54.6,82.1 97.2,82.1 97.2,89.6 64.2,89.6 64.2,97.6 87.1,97.6 87.1,105.2 64.2,105.2 64.2,113.8 98.7,113.8 98.7,121.4 54.6,121.4  "></polyline>
        <path fill="#fff" d="M143.1,93.2c-2.7-1.5-5.6-2.6-8.4-3.3c-2.8-0.7-5.8-1-8.8-1c-4.2,0-7.2,0.4-9.3,1.1 c-2.1,0.7-3.1,1.8-3.1,3c0,1.3,1.1,2.3,3.4,2.8c1,0.2,1.9,0.4,3,0.5c1.1,0.1,2.2,0.2,3.5,0.2c1.3,0.1,2.6,0.1,3.9,0.1                     c1.4,0.1,2.8,0.1,4.4,0.3c3,0.3,5.7,0.7,8,1.3c2.3,0.5,4.2,1.3,5.7,2.2c1.5,0.9,2.7,2.1,3.4,3.4c0.7,1.4,1.1,3,1.1,4.9                     c0,4.2-1.9,7.6-5.9,9.9c-3.9,2.4-9.6,3.6-17.1,3.6c-4.9,0-9.4-0.6-13.6-1.7c-4.2-1.2-8.1-3-11.9-5.6l5.2-6.4                     c3.4,2.1,6.8,3.6,10.2,4.6c3.3,1,6.9,1.5,10.5,1.5c4,0,7-0.5,9.1-1.5c2.2-1,3.2-2.3,3.2-3.9c0-0.9-0.3-1.6-0.9-2                     c-0.6-0.4-1.5-0.8-2.7-1.1c-1.2-0.2-2.6-0.4-4.2-0.5c-1.6-0.1-3.6-0.1-5.6-0.3c-3.9-0.1-7.2-0.4-10-1s-5.2-1.2-7.1-2.2                     c-1.9-0.9-3.3-2.1-4.2-3.5c-1-1.4-1.4-3-1.4-5c0-3.9,1.9-6.9,5.6-9.2c3.7-2.2,9.1-3.4,16.3-3.4c9.6,0,17.3,1.9,23.1,5.7L143.1,93.2                     "></path>
        <polyline fill="#fff" points="99,55.1 118.6,58 118.6,56.4 98.8,52.9 50.1,52.9 30.4,55.9 30.4,58 49.9,55.2 99,55.1 "></polyline>
        <path fill="#fff" d="M95,65.4h18.2V69H35.7v-3.6H95z M27.9,71.1h93.3v-6h-2.5v-5.3L99,57H50.1l-19.7,2.7v5.4h-2.5V71.1 L27.9,71.1z"></path>
        <polygon fill="#fff" points="75.7,22.1 78,22.1 78,18.4 75.7,18.4  "></polygon>
        <polygon fill="#fff" points="75.7,27.4 78,27.4 78,23.9 75.7,23.9  "></polygon>
        <path fill="#fff" d="M98.8,49.4H51l6.4-6.6c6.2-8.3,15.1-11.5,15.1-11.5s5.9-0.4,8.4,0.1c0,0,9.1,1.6,12.4,4.2 c0,0,3.2,1.5,12.4,11.4c0,0,4.6,4.5,8.4,6L98.8,49.4z M74.9,28.4h4V17.7h-4V28.4z M74.2,30.3h5.5v-0.8h-5.5V30.3z M74.2,16.7h7                     v-0.8h-7V16.7z M74.3,13.7c0.2-2.8,0.7-8,0.7-8s0.4,6.5,1.4,7.9c0.4,0.5,0.5,0.9,1.5,1.3l-3.6-0.1L74.3,13.7z M110.8,49.6                     c-6.8-4.6-11.3-12.6-18.7-16c-1-0.4-1.9-0.8-2.8-1.1c-0.9-0.3-2.5-0.8-3.8-1.1c-1.6-0.4-3.9-0.7-4.7-1.6c-0.4-0.4-0.3-1-1.1-1.3                     V17.4H82v-2.4h-1.6c-1.4,0-1.6-0.2-1.9-0.4c-0.5-0.2-1.4-0.9-1.9-2c-0.5-1.1-1-4.2-1.2-6.5C75.3,4.1,75.1,0,75.1,0h-0.7                     c0,0-0.1,1.5-0.1,3.1c-0.1,1.6,0.4,10-4.2,11.8C70,15,69.9,15,69.7,15.1h-2v2.4h2.1v11.1c-0.8,0.2-0.9,1.8-2.4,2.2                     c-3.4,0.4-6.8,1.6-9.6,2.7c-10.5,4.1-15.7,15.1-23.9,18.6c0,0-1.1,0.5-3.5,1.3v0.8c0,0,14.5-2.1,19.5-2.7l49-0.1l19.7,3.6l0.1-1.2                     C114,52.3,114.1,51.9,110.8,49.6L110.8,49.6z"></path>
    </g>
</svg>