<?xml version="1.0" encoding="utf-8"?>
<!-- Generator: Adobe Illustrator 24.1.0, SVG Export Plug-In . SVG Version: 6.00 Build 0)  -->
<svg version="1.1" id="Layer_1" xmlns="http://www.w3.org/2000/svg" xmlns:xlink="http://www.w3.org/1999/xlink" x="0px" y="0px"
	 viewBox="0 0 150 150" style="enable-background:new 0 0 150 150;" xml:space="preserve">

<path fill="#E86929" id="Shape" class="search-svg"  fill-rule="evenodd" clip-rule="evenodd" d="M107.2,94.4h-6.7l-2.3-2.3c8.4-9.8,13.5-22.4,13.5-36.3C111.5,24.9,86.6,0,55.7,0S0,24.9,0,55.7
	s24.9,55.7,55.7,55.7c13.8,0,26.6-5.1,36.3-13.5l2.3,2.3v6.7l42.8,42.9l12.8-12.8L107.2,94.4L107.2,94.4z M56.4,95
	c-21.3,0-38.5-17.2-38.5-38.5s17.2-38.5,38.5-38.5S95,35.1,95,56.4S77.8,95,56.4,95L56.4,95z"/>
</svg>
