<?xml version="1.0" encoding="utf-8"?>
<!-- Generator: Adobe Illustrator 24.1.0, SVG Export Plug-In . SVG Version: 6.00 Build 0)  -->
<svg version="1.1" id="Layer_1" xmlns="http://www.w3.org/2000/svg" xmlns:xlink="http://www.w3.org/1999/xlink" x="0px" y="0px"
	 viewBox="0 0 150 150" style="enable-background:new 0 0 150 150;" xml:space="preserve">

<path fill="#fff" fill-rule="evenodd" clip-rule="evenodd" d="M106.1,58.8c0,0.7,0,1.3,0,2c0,20.3-15.7,43.6-44.3,43.6c-8.8,0-17-2.5-23.9-6.9c1.2,0.1,2.5,0.2,3.7,0.2
	c7.3,0,14-2.4,19.4-6.6c-6.8-0.1-12.6-4.6-14.6-10.6c1,0.2,1.9,0.3,2.9,0.3c1.4,0,2.8-0.2,4.1-0.5c-7.1-1.4-12.5-7.6-12.5-15V65
	c2.1,1.1,4.5,1.8,7.1,1.9c-4.2-2.8-6.9-7.4-6.9-12.8c0-2.8,0.8-5.4,2.1-7.7c7.7,9.3,19.2,15.4,32.1,16C75.1,61.4,75,60.2,75,59
	c0-8.5,7-15.3,15.6-15.3c4.5,0,8.5,1.9,11.4,4.8c3.6-0.7,6.9-2,9.9-3.7c-1.2,3.6-3.6,6.6-6.8,8.5c3.2-0.4,6.2-1.2,8.9-2.4
	C111.8,53.9,109.2,56.6,106.1,58.8 M75,0C33.6,0,0,33.6,0,75c0,41.4,33.6,75,75,75s75-33.6,75-75C150,33.6,116.4,0,75,0"/>
</svg>
