<?xml version="1.0" encoding="utf-8"?>
<!-- Generator: Adobe Illustrator 24.1.0, SVG Export Plug-In . SVG Version: 6.00 Build 0)  -->
<svg version="1.1" id="Layer_1" xmlns="http://www.w3.org/2000/svg" xmlns:xlink="http://www.w3.org/1999/xlink" x="0px" y="0px"
	 viewBox="0 0 150 150" style="enable-background:new 0 0 150 150;" xml:space="preserve">

<path fill="#fff" fill-rule="evenodd" clip-rule="evenodd" d="M113,77.3c0,6.1-0.8,12.2-0.8,12.2s-0.7,5.2-3,7.5c-2.8,3-6,3-7.5,3.2C91.3,101,75.5,101,75.5,101
	S56,100.8,50,100.2c-1.7-0.3-5.4-0.2-8.3-3.2c-2.2-2.3-3-7.5-3-7.5S38,83.4,38,77.3v-5.7c0-6.1,0.8-12.2,0.8-12.2s0.7-5.2,3-7.5
	c2.8-3,6-3,7.5-3.2C59.7,48,75.5,48,75.5,48h0c0,0,15.7,0,26.2,0.8c1.5,0.2,4.7,0.2,7.5,3.2c2.2,2.3,3,7.5,3,7.5s0.8,6.1,0.8,12.2
	V77.3z M75,0C33.6,0,0,33.6,0,75c0,41.4,33.6,75,75,75c41.4,0,75-33.6,75-75C150,33.6,116.4,0,75,0z"/>
<polygon fill="#fff" points="67,85 88,74.5 67,64 "/>
</svg>
